<svg xmlns="http://www.w3.org/2000/svg" xmlns:xlink="http://www.w3.org/1999/xlink" width="48" height="48" viewBox="0 0 48 48" fill="none">
<g  clip-path="url(#clip-path-0_1)">
<path     fill="#FFFFFF"  d="M32 0C37.6 0 40.4 0 42.54 1.09Q43.2412 1.44729 43.8779 1.90988Q44.5146 2.37246 45.0711 2.92894Q45.6275 3.48543 46.0901 4.12211Q46.5527 4.75879 46.91 5.46C48 7.6 48 10.4 48 16L48 32C48 37.6 48 40.4 46.91 42.54Q46.5527 43.2412 46.0901 43.8779Q45.6275 44.5146 45.0711 45.0711Q44.5146 45.6275 43.8779 46.0901Q43.2412 46.5527 42.54 46.91C40.4 48 37.6 48 32 48L16 48C10.4 48 7.6 48 5.46 46.91Q4.75879 46.5527 4.12211 46.0901Q3.48543 45.6275 2.92894 45.0711Q2.37246 44.5146 1.90988 43.8779Q1.44729 43.2412 1.09 42.54C0 40.4 0 37.6 0 32L0 16C0 10.4 0 7.6 1.09 5.46Q1.44729 4.75879 1.90988 4.12211Q2.37246 3.48543 2.92894 2.92894Q3.48543 2.37246 4.12211 1.90988Q4.75879 1.44729 5.46 1.09C7.6 0 10.4 0 16 0L32 0Z">
</path>
<g filter="url(#filter_0_23)">
<path d="M19 0L18 6L12.4 6C10.16 6 9.04 6 8.19 6.43Q7.90913 6.57298 7.65412 6.75819Q7.39911 6.94339 7.17625 7.16625Q6.95339 7.38911 6.76819 7.64412Q6.58298 7.89913 6.44 8.18C6 9.04 6 10.16 6 12.4L6 35.6C6 37.84 6 38.96 6.43 39.81Q6.57298 40.0909 6.75819 40.3459Q6.94339 40.6009 7.16625 40.8237Q7.38911 41.0466 7.64412 41.2318Q7.89913 41.417 8.18 41.56C8.98722 41.973 10.0235 41.9983 12 41.9999L18 6L27 6L24 24L33 24L30 42L21 42L20 48L29 48L30 42L35.6 42C37.84 42 38.96 42 39.81 41.57Q40.0909 41.427 40.3459 41.2418Q40.6009 41.0566 40.8237 40.8337Q41.0466 40.6109 41.2318 40.3559Q41.417 40.1009 41.56 39.82C42 38.96 42 37.84 42 35.6L42 12.4C42 10.16 42 9.04 41.57 8.19Q41.427 7.90913 41.2418 7.65412Q41.0566 7.39911 40.8337 7.17625Q40.6109 6.95339 40.3559 6.76819Q40.1009 6.58298 39.82 6.44C38.96 6 37.84 6 35.6 6L27 6L28 0L19 0Z" fill-rule="evenodd"  fill="#71ACB6" >
</path>
</g>
</g>
<defs>
<clipPath id="clip-path-0_1">
<path d="M32 0C37.6 0 40.4 0 42.54 1.09Q43.2412 1.44729 43.8779 1.90988Q44.5146 2.37246 45.0711 2.92894Q45.6275 3.48543 46.0901 4.12211Q46.5527 4.75879 46.91 5.46C48 7.6 48 10.4 48 16L48 32C48 37.6 48 40.4 46.91 42.54Q46.5527 43.2412 46.0901 43.8779Q45.6275 44.5146 45.0711 45.0711Q44.5146 45.6275 43.8779 46.0901Q43.2412 46.5527 42.54 46.91C40.4 48 37.6 48 32 48L16 48C10.4 48 7.6 48 5.46 46.91Q4.75879 46.5527 4.12211 46.0901Q3.48543 45.6275 2.92894 45.0711Q2.37246 44.5146 1.90988 43.8779Q1.44729 43.2412 1.09 42.54C0 40.4 0 37.6 0 32L0 16C0 10.4 0 7.6 1.09 5.46Q1.44729 4.75879 1.90988 4.12211Q2.37246 3.48543 2.92894 2.92894Q3.48543 2.37246 4.12211 1.90988Q4.75879 1.44729 5.46 1.09C7.6 0 10.4 0 16 0L32 0Z" fill="white"/>
</clipPath>
<filter id="filter_0_23" x="2" y="-4" width="44" height="56" filterUnits="userSpaceOnUse" color-interpolation-filters="sRGB">
<feFlood flood-opacity="0" result="feFloodId_0_23"/>
<feColorMatrix in="SourceAlpha" type="matrix" values="0 0 0 0 0 0 0 0 0 0 0 0 0 0 0 0 0 0 127 0" result="hardAlpha_0_23"/>
<feOffset dx="0" dy="0"/>
<feGaussianBlur stdDeviation="2"/>
<feComposite in2="hardAlpha_0_23" operator="out"/>
<feColorMatrix type="matrix" values="0 0 0 0 0.44313725490196076 0 0 0 0 0.6745098039215687 0 0 0 0 0.7137254901960784 0 0 0 1 0"/>
<feBlend mode="normal" in2="feFloodId_0_23" result="dropShadow_1_0_23"/>
<feBlend mode="normal" in="SourceGraphic" in2="dropShadow_1_0_23" result="shape_0_23"/>
</filter>
</defs>
</svg>
